<?xml version="1.0" standalone="no"?>
<!DOCTYPE svg PUBLIC "-//W3C//DTD SVG 20010904//EN"
 "http://www.w3.org/TR/2001/REC-SVG-20010904/DTD/svg10.dtd">
<svg version="1.0" xmlns="http://www.w3.org/2000/svg"
 width="1280.000000pt" height="1029.000000pt" viewBox="0 0 1280.000000 1029.000000"
 preserveAspectRatio="xMidYMid meet">
<g transform="translate(0.000000,1029.000000) scale(0.100000,-0.100000)"
fill="#000000" stroke="none">
<path d="M7819 7724 c-539 -441 -921 -797 -1331 -1241 -77 -84 -146 -153 -152
-153 -6 0 -88 77 -181 171 -281 282 -594 563 -934 838 -247 200 -382 301 -392
295 -19 -12 -267 -519 -411 -844 -216 -482 -416 -1022 -538 -1447 -11 -40 -26
-73 -31 -73 -6 0 -176 103 -377 229 -202 125 -515 320 -697 433 -397 246 -841
528 -1022 650 -73 48 -140 88 -149 88 -15 0 -16 -44 -11 -577 6 -569 11 -720
42 -1098 134 -1637 553 -2736 1248 -3278 66 -51 76 -63 60 -69 -10 -4 -169
-41 -354 -83 -184 -41 -351 -81 -370 -89 -19 -8 -101 -20 -183 -26 -599 -50
-1128 188 -1483 667 -30 41 -95 141 -144 221 -92 150 -122 192 -138 192 -29 0
-21 -164 15 -310 9 -36 40 -115 69 -176 249 -516 714 -838 1405 -974 227 -44
342 -54 620 -54 332 0 426 11 1005 117 167 31 294 46 510 61 67 4 334 -34 460
-65 228 -58 454 -197 570 -351 75 -100 114 -188 156 -354 56 -226 98 -293 222
-356 80 -40 232 -71 317 -65 107 8 267 36 405 72 139 36 333 99 346 112 9 9
-476 802 -550 898 -119 157 -355 366 -557 495 -13 8 -24 20 -24 25 0 6 67 38
149 72 145 60 150 62 217 57 64 -5 74 -3 129 26 106 56 307 196 400 277 50 43
146 117 214 163 121 83 123 84 150 68 14 -8 98 -58 186 -110 88 -52 192 -117
230 -145 90 -65 233 -151 349 -211 85 -43 96 -46 171 -47 63 0 98 -6 163 -30
45 -16 82 -35 82 -41 0 -6 -11 -16 -25 -22 -14 -6 -25 -16 -25 -21 0 -5 -24
-24 -52 -42 -156 -95 -349 -272 -464 -424 -88 -116 -567 -926 -555 -938 16
-16 296 -96 431 -123 295 -60 531 -47 666 39 53 33 112 100 135 153 11 23 31
94 44 156 48 217 87 308 181 422 119 144 309 263 519 324 81 24 300 66 427 83
121 15 253 0 788 -90 295 -50 452 -64 720 -64 274 -1 405 11 625 54 613 122
1054 383 1320 784 65 98 146 257 175 345 30 89 56 306 42 342 -17 42 -37 26
-99 -81 -199 -342 -318 -496 -508 -651 -247 -202 -548 -321 -891 -351 -141
-12 -424 1 -448 20 -7 6 -192 47 -412 92 -219 45 -403 85 -407 89 -5 4 29 36
75 71 94 71 269 243 341 336 27 33 61 67 77 73 43 18 63 45 56 74 -5 19 3 39
28 78 509 797 755 2202 697 3983 -7 204 -16 373 -20 378 -4 4 -92 -52 -197
-124 -234 -163 -1882 -1259 -1892 -1259 -4 0 -31 75 -60 168 -135 421 -298
836 -522 1327 -89 193 -443 901 -469 933 l-17 24 -145 -118z"/>
</g>
</svg>
